<svg id="visual" viewBox="0 0 960 540" width="960" height="540" xmlns="http://www.w3.org/2000/svg" xmlns:xlink="http://www.w3.org/1999/xlink" version="1.1"><rect width="960" height="540" fill="#181818"></rect><g><g transform="translate(715 136)"><path d="M0 -61.5L53.3 -30.8L53.3 30.8L0 61.5L-53.3 30.8L-53.3 -30.8Z" fill="none" stroke="#676767" stroke-width="2"></path></g><g transform="translate(94 63)"><path d="M0 -53L45.9 -26.5L45.9 26.5L0 53L-45.9 26.5L-45.9 -26.5Z" fill="none" stroke="#676767" stroke-width="2"></path></g><g transform="translate(587 257)"><path d="M0 -50L43.3 -25L43.3 25L0 50L-43.3 25L-43.3 -25Z" fill="none" stroke="#676767" stroke-width="2"></path></g><g transform="translate(220 493)"><path d="M0 -58L50.2 -29L50.2 29L0 58L-50.2 29L-50.2 -29Z" fill="none" stroke="#676767" stroke-width="2"></path></g><g transform="translate(936 445)"><path d="M0 -56L48.5 -28L48.5 28L0 56L-48.5 28L-48.5 -28Z" fill="none" stroke="#676767" stroke-width="2"></path></g><g transform="translate(431 17)"><path d="M0 -58L50.2 -29L50.2 29L0 58L-50.2 29L-50.2 -29Z" fill="none" stroke="#676767" stroke-width="2"></path></g><g transform="translate(552 71)"><path d="M0 -46L39.8 -23L39.8 23L0 46L-39.8 23L-39.8 -23Z" fill="none" stroke="#676767" stroke-width="2"></path></g><g transform="translate(924 206)"><path d="M0 -56L48.5 -28L48.5 28L0 56L-48.5 28L-48.5 -28Z" stroke="#676767" fill="none" stroke-width="2"></path></g><g transform="translate(273 249)"><path d="M0 -52L45 -26L45 26L0 52L-45 26L-45 -26Z" stroke="#676767" fill="none" stroke-width="2"></path></g><g transform="translate(427 220)"><path d="M0 -57L49.4 -28.5L49.4 28.5L0 57L-49.4 28.5L-49.4 -28.5Z" stroke="#676767" fill="none" stroke-width="2"></path></g><g transform="translate(399 489)"><path d="M0 -48L41.6 -24L41.6 24L0 48L-41.6 24L-41.6 -24Z" stroke="#676767" fill="none" stroke-width="2"></path></g><g transform="translate(837 44)"><path d="M0 -50L43.3 -25L43.3 25L0 50L-43.3 25L-43.3 -25Z" stroke="#676767" fill="none" stroke-width="2"></path></g><g transform="translate(523 520)"><path d="M0 -48L41.6 -24L41.6 24L0 48L-41.6 24L-41.6 -24Z" stroke="#676767" fill="none" stroke-width="2"></path></g><g transform="translate(27 539)"><path d="M0 -48L41.6 -24L41.6 24L0 48L-41.6 24L-41.6 -24Z" stroke="#676767" fill="none" stroke-width="2"></path></g><g transform="translate(39 410)"><path d="M0 -55L47.6 -27.5L47.6 27.5L0 55L-47.6 27.5L-47.6 -27.5Z" stroke="#676767" fill="none" stroke-width="2"></path></g><g transform="translate(275 103)"><path d="M0 -57L49.4 -28.5L49.4 28.5L0 57L-49.4 28.5L-49.4 -28.5Z" stroke="#676767" fill="none" stroke-width="2"></path></g><g transform="translate(206 370)"><path d="M0 -59L51.1 -29.5L51.1 29.5L0 59L-51.1 29.5L-51.1 -29.5Z" stroke="#676767" fill="none" stroke-width="2"></path></g></g></svg>