<svg id="visual" viewBox="0 0 960 540" width="960" height="540" xmlns="http://www.w3.org/2000/svg" xmlns:xlink="http://www.w3.org/1999/xlink" version="1.1"><path d="M0 44L480 44L960 44L960 0L480 0L0 0Z" fill="#181818"></path><path d="M0 71L480 71L960 71L960 42L480 42L0 42Z" fill="#141414"></path><path d="M0 104L480 104L960 104L960 69L480 69L0 69Z" fill="#0f0f0f"></path><path d="M0 125L480 125L960 125L960 102L480 102L0 102Z" fill="#090909"></path><path d="M0 147L480 147L960 147L960 123L480 123L0 123Z" fill="#030303"></path><path d="M0 255L480 239L960 239L960 145L480 145L0 145Z" fill="#000000"></path><path d="M0 314L480 309L960 303L960 237L480 237L0 253Z" fill="#000000"></path><path d="M0 341L480 336L960 330L960 301L480 307L0 312Z" fill="#030303"></path><path d="M0 449L480 449L960 444L960 328L480 334L0 339Z" fill="#090909"></path><path d="M0 471L480 471L960 465L960 442L480 447L0 447Z" fill="#0f0f0f"></path><path d="M0 498L480 492L960 492L960 463L480 469L0 469Z" fill="#141414"></path><path d="M0 541L480 541L960 541L960 490L480 490L0 496Z" fill="#181818"></path></svg>