<svg id="visual" viewBox="0 0 960 540" width="960" height="540" xmlns="http://www.w3.org/2000/svg" xmlns:xlink="http://www.w3.org/1999/xlink" version="1.1"><path d="M0 512L10.7 511.7C21.3 511.3 42.7 510.7 64 510.7C85.3 510.7 106.7 511.3 128 511.7C149.3 512 170.7 512 192 512.3C213.3 512.7 234.7 513.3 256 512.2C277.3 511 298.7 508 320 506.5C341.3 505 362.7 505 384 507.3C405.3 509.7 426.7 514.3 448 516C469.3 517.7 490.7 516.3 512 515.2C533.3 514 554.7 513 576 513.5C597.3 514 618.7 516 640 515.3C661.3 514.7 682.7 511.3 704 510.7C725.3 510 746.7 512 768 512.8C789.3 513.7 810.7 513.3 832 514.3C853.3 515.3 874.7 517.7 896 518.7C917.3 519.7 938.7 519.3 949.3 519.2L960 519L960 541L949.3 541C938.7 541 917.3 541 896 541C874.7 541 853.3 541 832 541C810.7 541 789.3 541 768 541C746.7 541 725.3 541 704 541C682.7 541 661.3 541 640 541C618.7 541 597.3 541 576 541C554.7 541 533.3 541 512 541C490.7 541 469.3 541 448 541C426.7 541 405.3 541 384 541C362.7 541 341.3 541 320 541C298.7 541 277.3 541 256 541C234.7 541 213.3 541 192 541C170.7 541 149.3 541 128 541C106.7 541 85.3 541 64 541C42.7 541 21.3 541 10.7 541L0 541Z" fill="#000000" stroke-linecap="round" stroke-linejoin="miter"></path></svg>